<svg xmlns="http://www.w3.org/2000/svg" width="93.333" height="93.333" preserveAspectRatio="xMidYMid meet" version="1.0" viewBox="0 0 70 70"><metadata>Created by potrace 1.14, written by Peter Selinger 2001-2017</metadata><g fill="#000" stroke="none"><path d="M292 596 c-29 -30 -52 -58 -52 -63 0 -4 14 -24 30 -43 33 -38 35 -57 8 -74 -14 -8 -24 -4 -51 22 -18 17 -38 32 -44 32 -15 0 -106 -107 -101 -118 7 -20 93 -112 103 -112 6 0 41 32 77 70 40 43 72 70 85 70 19 0 132 -105 141 -131 8 -20 34 -6 79 42 26 28 48 57 48 64 0 16 -90 115 -104 115 -6 0 -24 -14 -39 -31 -22 -24 -33 -30 -50 -25 -31 10 -27 39 9 81 l32 36 -20 22 c-11 12 -35 39 -53 60 -18 20 -36 37 -40 37 -4 0 -30 -24 -58 -54z" transform="translate(0.000000,70.000000) scale(0.100000,-0.100000)"/><path d="M291 244 c-28 -30 -51 -60 -51 -64 0 -5 25 -35 55 -67 l55 -58 54 60 c31 33 54 63 53 67 -4 13 -99 118 -107 118 -4 0 -31 -25 -59 -56z" transform="translate(0.000000,70.000000) scale(0.100000,-0.100000)"/></g></svg>